<svg xmlns="http://www.w3.org/2000/svg"><style>:root svg:not(:target){display:none}</style><svg viewBox="0 0 13 16" fill="none" id="address-icon"><path fill-rule="evenodd" clip-rule="evenodd" d="M11.8 6.5c0 2.33-1.37 4.42-2.91 6.01a17.54 17.54 0 0 1-2.39 2.05 16.93 16.93 0 0 1-2.39-2.05c-1.54-1.6-2.91-3.68-2.91-6.01a5.3 5.3 0 1 1 10.6 0Zm1.2 0c0 5.59-6.5 9.5-6.5 9.5s-6.5-3.91-6.5-9.5a6.5 6.5 0 0 1 13 0Zm-4.2 0a2.3 2.3 0 1 1-4.6 0 2.3 2.3 0 0 1 4.6 0Zm1.2 0a3.5 3.5 0 1 1-7 0 3.5 3.5 0 0 1 7 0Z" fill="#7859CF"></path></svg><svg viewBox="0 0 13 16" fill="none" id="adress-icon"><path fill-rule="evenodd" clip-rule="evenodd" d="M11.8 6.5c0 2.33-1.37 4.42-2.91 6.01a17.54 17.54 0 0 1-2.39 2.05 16.93 16.93 0 0 1-2.39-2.05c-1.54-1.6-2.91-3.68-2.91-6.01a5.3 5.3 0 1 1 10.6 0Zm1.2 0c0 5.59-6.5 9.5-6.5 9.5s-6.5-3.91-6.5-9.5a6.5 6.5 0 0 1 13 0Zm-4.2 0a2.3 2.3 0 1 1-4.6 0 2.3 2.3 0 0 1 4.6 0Zm1.2 0a3.5 3.5 0 1 1-7 0 3.5 3.5 0 0 1 7 0Z" fill="#7859CF"></path></svg><svg viewBox="0 0 20 16" fill="none" id="cart-button"><path fill-rule="evenodd" clip-rule="evenodd" d="M13.6738 13.5219L13.6769 13.5H15.0238L14.9937 13.7105C14.8061 15.0242 13.6809 16 12.3539 16H3.64612C2.31905 16 1.19393 15.0242 1.00626 13.7105L0.190476 8L0 6.66667H1.34687H4.55556L4.33218 3.98618C4.15336 1.84036 5.84674 0 8 0C9.81376 0 11.3012 1.30578 11.6183 3H10.2473C9.95698 2.04197 9.06703 1.33333 8 1.33333C6.62679 1.33333 5.54687 2.50699 5.66091 3.87546L5.89351 6.66667H9.5V8H6.05787L6.28009 10.6667H9.71991L9.7338 10.5H11.0718L11.0579 10.6667H12.5V12H10.9468L10.7245 14.6667H12.3539C13.0174 14.6667 13.58 14.1788 13.6738 13.5219ZM4.71991 8H4.66667H1.53735L1.9183 10.6667H4.94213L4.71991 8ZM6.61342 14.6667L6.3912 12H9.6088L9.38658 14.6667H6.61342ZM5.05324 12L5.27547 14.6667H3.64612C2.98259 14.6667 2.42003 14.1788 2.32619 13.5219L2.10877 12H5.05324ZM15.8 10V7.2H13V5.8H15.8V3H17.2V5.8H20V7.2H17.2V10H15.8Z" fill="white"></path></svg><svg viewBox="0 0 16 16" fill="none" id="cart"><path fill-rule="evenodd" clip-rule="evenodd" d="m5.66 3.88.23 2.79h4.22l.23-2.8a2.35 2.35 0 1 0-4.68 0Zm5.78 2.79.23-2.68a3.68 3.68 0 1 0-7.34 0l.23 2.68h-4.56l.19 1.33.82 5.71a2.67 2.67 0 0 0 2.64 2.29h8.7c1.33 0 2.46-.98 2.64-2.29l.82-5.71.19-1.33h-4.55Zm-.1 1.33h-.06l-.22 2.67h3.02l.38-2.67h-3.13Zm-1.4 0h-3.88l.22 2.67h3.44l.22-2.67Zm-5.22 0h-3.18l.38 2.67h3.02l-.22-2.67Zm1.9 6.67-.23-2.67h3.22l-.22 2.67h-2.78Zm4.33-2.67-.23 2.67h1.63c.67 0 1.23-.5 1.32-1.15l.22-1.52h-2.94Zm-5.9 0 .23 2.67h-1.63c-.67 0-1.23-.5-1.32-1.15l-.22-1.52h2.94Z" fill="#333"></path></svg><svg viewBox="0 0 12 16" fill="none" id="developers-icon"><path d="m11.22 5.75-5.25-3.25-5.19 3.25v-4.34l5.22-.58 5.22.58v4.34Zm0 .58-2.1 1.3-3.14-1.97v.57l2.68 1.68-.46.29-2.22-1.4v.58l1.75 1.1-.41.29h-.01l-1.33-.82v.58l.87.53-.89.56-5.16-3.23 5.17-3.28 5.24 3.22Zm0 5.44-5.22 3.27-5.22-3.27v-4.74l5.2 3.25v.59l-3.56-2.23v.57l3.58 2.26v.6l-3.57-2.23v.57l3.57 2.26 3.6-2.27v-2.44l1.62-1.01v4.82Zm-5.22-11.77-6 .66v11.58l6 3.76 6-3.76v-11.58l-6-.66Z" fill="#BDBDBD"></path></svg><svg viewBox="0 0 42 56" fill="none" id="icon-cheerfulness"><path fill-rule="evenodd" clip-rule="evenodd" d="m19.97 35.2 18.16-31.2-34.13 26.68 15.97 4.52Zm6.06-10.4-18.16 31.2 34.13-26.68-15.97-4.52Z" fill="#F0EBFF"></path><path fill-rule="evenodd" clip-rule="evenodd" d="m34.13 0-34.13 26.68 15.97 4.52-12.1 20.8 34.13-26.68-15.97-4.52 12.1-20.8Zm1.7 25.75-15.32-4.34 10.15-17.42-28.5 22.26 15.33 4.34-10.15 17.42 28.5-22.26Z" fill="#7859CF"></path></svg><svg viewBox="0 0 52 56" fill="none" id="icon-convenience"><path d="M4 4h48l-4 44-20 8-20-8-4-44Z" fill="#F0EBFF"></path><path fill-rule="evenodd" clip-rule="evenodd" d="M1 0h-1l.1 1 3.9 43 20 8 20-8 3.9-43 .1-1h-47Zm.1 1 .36 4h45.08l.37-4h-45.81Zm40.8 5h-35.8l.1 1.13-.5.05-.5.04-.11-1.22h-3.54l3.39 37.3 19.06 7.62 19.06-7.62 3.39-37.3h-3.54l-.1 1.22-.5-.04-.5-.05.1-1.13Zm-35.8 5.62-.5.04.39 4.45.5-.05.5-.04-.4-4.45-.5.05Zm.78 8.88-.5.05.4 4.44.5-.04.5-.05-.4-4.44-.5.04Zm.8 8.89-.5.04.4 4.45.5-.05.49-.04-.4-4.45-.5.05Zm.79 8.88-.5.05.2 2.22 1.98.8.18-.46.2-.46-1.42-.58-.15-1.61-.5.04Zm5.82 4.23-.19.46 3.96 1.62.2-.47.18-.46-3.96-1.61-.19.46Zm7.92 3.23-.19.46 1.98.81 1.98-.8-.19-.47-.19-.46-1.6.65-1.6-.65-.19.46Zm7.54-1.62.19.47 3.96-1.62-.2-.46-.18-.46-3.96 1.61.19.46Zm7.92-3.23.18.47 1.98-.81.2-2.22-.5-.05-.5-.04-.14 1.61-1.41.58.19.46Zm2.26-7.05.5.05.4-4.45-.5-.04-.5-.05-.4 4.45.5.04Zm.8-8.88.49.04.4-4.44-.5-.05-.5-.04-.4 4.44.5.05Zm.78-8.89.5.05.4-4.45-.5-.04-.5-.05-.4 4.45.5.04Z" fill="#7859CF"></path></svg><svg viewBox="0 0 46 56" fill="none" id="icon-ecology"><path fill-rule="evenodd" clip-rule="evenodd" d="M38.7 22.12c.78-6.56 1.5-12.77 7.3-18.12-26.5 0-34.15 8.13-38 14-8.54 13.04-.91 25.67.71 28.09a808.17 808.17 0 0 0-4.71 9.47l.88.44c.64-1.27 1.3-2.6 1.98-4l2.65-5.32c2.6.87 14.45 4.19 21.99-4.68 5.66-6.66 6.45-13.44 7.2-19.88Z" fill="#F0EBFF"></path><path fill-rule="evenodd" clip-rule="evenodd" d="M5.23 41.05c3.96-7.8 8.46-15.96 13.04-21.05l.73.66c-4.57 5.08-9.07 13.3-13.03 21.12a26.2 26.2 0 0 0 7.12 1.22c4.38.12 9.66-.96 13.65-5.65 5.46-6.42 6.22-12.94 6.98-19.4l.02-.13c.68-5.81 1.38-11.64 5.87-16.8-11.79.23-19.48 2.16-24.67 4.68a23.8 23.8 0 0 0-10.1 8.85 22.6 22.6 0 0 0-2.94 18.88 28.93 28.93 0 0 0 3.33 7.63Zm-.52 1.04c-1.62-2.42-9.25-15.05-.71-28.09 3.78-5.76 11.23-13.7 36.55-14h1.45a22 22 0 0 0-1.02 1c-4.87 5.12-5.55 10.96-6.27 17.12-.76 6.44-1.55 13.22-7.21 19.88-7.54 8.87-19.4 5.55-21.99 4.68l-2.65 5.32c-.68 1.4-1.34 2.73-1.98 4l-.88-.44 1.97-3.96 2.74-5.51Z" fill="#7859CF"></path></svg><svg viewBox="0 0 50 56" fill="none" id="icon-speed"><path fill-rule="evenodd" clip-rule="evenodd" d="M23 4h8v3h-3v3.02c3.82.16 7.39 1.26 10.5 3.06 1.85-1.93 6.26.17 4.76 3.66l-.1-.1a23 23 0 1 1-32.43.1c-2.02-3.03 2.59-6.16 4.77-3.66 3.11-1.8 6.68-2.9 10.5-3.06v-3.02h-3v-3Z" fill="#F0EBFF"></path><path fill-rule="evenodd" clip-rule="evenodd" d="M26 1h-6v1h6v-1Zm-2 2h3v-3h-8v3h3v3.02a22.87 22.87 0 0 0-9.6 2.57l-.15-.17c-1.53-1.76-3.85-1.44-5.3-.4a4.14 4.14 0 0 0-1.6 2.26c-.26.96-.1 2.02.56 3.01l.12.19a23 23 0 1 0 33.99.05l.16-.4c.47-1.08.5-2.13.17-3.04-.32-.9-.95-1.6-1.68-2.06-1.41-.89-3.54-1.06-4.9.36l-.17.2a22.87 22.87 0 0 0-9.6-2.57v-3.02Zm-1 4c-3.86 0-7.49 1-10.64 2.74l-.36.2a22 22 0 1 0 22 0l-.36-.2a21.9 21.9 0 0 0-10.64-2.74Zm-11.5 2.08a23.08 23.08 0 0 0-4.76 3.66 2.98 2.98 0 0 1-.44-.98c-.55-2.31 2.31-4.31 4.35-3.34.3.15.6.37.85.66Zm23 0a23.08 23.08 0 0 1 4.76 3.66c.17-.4.26-.77.3-1.12.2-2.33-2.32-3.74-4.1-3.14-.36.12-.69.32-.96.6Zm-11.5 21.92a2 2 0 0 0 .86-3.8l-.91-.2a2 2 0 0 0 .05 4Zm-.64-4.93-1.34-4.94-.04-.14.05-.15 1.5-4.5.47-1.42.47 1.42 1.5 4.5.05.15-.04.14-1.34 4.94.37.1 7.55-13.42.88.5-7.55 13.42a3 3 0 1 1-2.53-.6Zm-.34-5.06.98 3.59.98-3.59-.98-2.93-.98 2.93Z" fill="#7859CF"></path></svg><svg viewBox="0 0 16 16" fill="none" id="menu-close"><path fill-rule="evenodd" clip-rule="evenodd" d="m7.03 8-5.03-5.03.97-.97 5.03 5.03 5.03-5.03.97.97-5.03 5.03 5.03 5.03-.97.97-5.03-5.03-5.03 5.03-.97-.97 5.03-5.03Z" fill="#333"></path></svg><svg viewBox="0 0 16 16" fill="none" id="menu-open"><path fill-rule="evenodd" clip-rule="evenodd" d="M0 2h16v1.5h-16v-1.5Zm0 5.25h16v1.5h-16v-1.5Zm16 5.25h-16v1.5h16v-1.5Z" fill="#333"></path></svg><svg viewBox="0 0 20 20" fill="none" id="ok-icon"><path fill-rule="evenodd" clip-rule="evenodd" d="M1.4 1.4C3.33786e-06 2.812 3.35195e-06 5.074 3.35195e-06 9.6V10.4L1.66545e-06 10.5136C-9.77702e-05 14.97 -0.00014782 17.2117 1.4 18.6C2.812 20 5.074 20 9.6 20H10.4H10.5131C14.9698 20.0001 17.2117 20.0001 18.6 18.6C20 17.188 20 14.926 20 10.4V9.6V9.48685C20.0001 5.03015 20.0001 2.7883 18.6 1.4C17.188 3.33786e-06 14.926 3.35195e-06 10.4 3.35195e-06H9.6L9.48639 1.66545e-06C5.03 -9.77702e-05 2.78825 -0.00014782 1.4 1.4ZM10.0194 10.1972C11.6876 10.1972 13.0477 8.83717 13.0477 7.16889C13.0477 5.50061 11.6876 4.14061 10.0194 4.14061C8.33296 4.14061 6.97295 5.50061 6.97295 7.16889C6.97295 8.83717 8.33296 10.1972 10.0194 10.1972ZM10.0194 5.91768C10.7084 5.91768 11.2706 6.47982 11.2706 7.16889C11.2706 7.85796 10.7084 8.4201 10.0194 8.4201C9.3303 8.4201 8.76816 7.85796 8.76816 7.16889C8.75003 6.47982 9.31216 5.91768 10.0194 5.91768ZM11.2343 12.6815C11.8509 12.5364 12.4493 12.3007 12.9933 11.9561C13.4103 11.7023 13.5372 11.1401 13.2653 10.7231C13.0114 10.306 12.4493 10.1791 12.0322 10.4511C10.7991 11.2308 9.18524 11.2308 7.95216 10.4511C7.53509 10.1972 6.99109 10.306 6.71909 10.7231C6.48336 11.1401 6.61029 11.6841 7.02736 11.938C7.57137 12.2825 8.16977 12.5183 8.7863 12.6634L7.0999 14.3498C6.75536 14.6943 6.75536 15.2565 7.0999 15.601C7.28123 15.7823 7.49883 15.8548 7.73456 15.8548C7.9703 15.8548 8.1879 15.7641 8.36923 15.601L10.0375 13.9327L11.7058 15.601C12.0503 15.9455 12.6124 15.9455 12.957 15.601C13.3015 15.2565 13.3015 14.6943 12.957 14.3498L11.2343 12.6815Z" fill="#BDBDBD"></path></svg><svg viewBox="0 0 13 16" fill="none" id="phone-icon"><path fill-rule="evenodd" clip-rule="evenodd" d="M1.48 1.49a2.7 2.7 0 0 0-1.43 2.83l.35 1.77c.93 3.13 2.5 5.77 4.83 8.11l1.4 1.2c.86.72 2.17.8 3.24.2l2.23-1.25c.88-.49 1.17-1.53.63-2.26l-1.93-2.6c-.52-.7-1.6-.82-2.37-.26l-1.38.99a5.23 5.23 0 0 1-2.17-3.67l1.56-.66c.9-.37 1.33-1.33.96-2.11l-1.36-2.93c-.38-.82-1.46-1.1-2.33-.6l-2.23 1.24Zm-.2 2.53c-.12-.6.2-1.22.78-1.55l2.23-1.24c.22-.13.5-.06.59.15l1.36 2.93c.1.2-.02.43-.24.53l-2.43 1.02.02.42a6.28 6.28 0 0 0 3.07 5.16l.36.22 2.13-1.53c.2-.14.46-.11.59.06l1.93 2.61c.14.19.07.45-.15.57l-2.23 1.25c-.59.33-1.3.28-1.77-.12l-1.4-1.19a20.91 20.91 0 0 1-4.48-7.52l-.36-1.77Z" fill="#7859CF"></path></svg><svg viewBox="0 0 22 22" fill="none" id="pinterest-icon"><path d="M11 8.96454e-05C4.92488 8.96454e-05 0 4.92497 0 11C0 15.6602 2.8994 19.644 6.99129 21.2467C6.89517 20.3764 6.80825 19.0379 7.02943 18.0878C7.22934 17.2293 8.31931 12.6201 8.31931 12.6201C8.31931 12.6201 7.99028 11.9612 7.99028 10.987C7.99028 9.45743 8.87682 8.31552 9.98068 8.31552C10.9192 8.31552 11.3724 9.0201 11.3724 9.86499C11.3724 10.8088 10.7716 12.2199 10.4615 13.5275C10.2023 14.6223 11.0105 15.5152 12.0904 15.5152C14.0454 15.5152 15.5483 13.4537 15.5483 10.4781C15.5483 7.84429 13.6558 6.00285 10.9535 6.00285C7.82365 6.00285 5.98653 8.35042 5.98653 10.7765C5.98653 11.7219 6.35073 12.7357 6.80518 13.2868C6.89508 13.3958 6.90824 13.4912 6.88146 13.6023C6.79797 13.9498 6.6124 14.6969 6.57597 14.8498C6.528 15.0512 6.41655 15.0939 6.20808 14.9969C4.83426 14.3574 3.9753 12.3488 3.9753 10.7355C3.9753 7.26559 6.49644 4.07891 11.2434 4.07891C15.0593 4.07891 18.0247 6.79806 18.0247 10.432C18.0247 14.223 15.6344 17.2739 12.3167 17.2739C11.202 17.2739 10.1542 16.6949 9.79547 16.0109C9.79547 16.0109 9.2439 18.1111 9.11018 18.6258C8.86186 19.5812 8.19145 20.7788 7.74303 21.5095C8.77223 21.8281 9.86598 22 11 22C17.0751 22 22 17.0751 22 11C22 4.92497 17.0751 8.96454e-05 11 8.96454e-05Z" fill="#BDBDBD"></path></svg><svg viewBox="0 0 16 16" fill="none" id="user"><path fill-rule="evenodd" clip-rule="evenodd" d="M10.67 4a2.67 2.67 0 1 1-5.34 0 2.67 2.67 0 0 1 5.34 0Zm1.33 0a4 4 0 1 1-8 0 4 4 0 0 1 8 0Zm-8.8 8.31a7.55 7.55 0 0 1 4.8-1.64c1.84 0 3.56.6 4.8 1.64a4.83 4.83 0 0 1 1.87 3.69h1.33c0-1.77-.84-3.46-2.34-4.71a8.88 8.88 0 0 0-5.66-1.96c-2.12 0-4.16.7-5.66 1.96a6.16 6.16 0 0 0-2.34 4.71h1.33c0-1.33.63-2.66 1.87-3.69Z" fill="#333"></path></svg><svg viewBox="0 0 20 20" fill="none" id="vk-icon"><path fill-rule="evenodd" clip-rule="evenodd" d="M1.40589 1.40589C0 2.81177 0 5.0745 0 9.6V10.4C0 14.9255 0 17.1882 1.40589 18.5941C2.81177 20 5.0745 20 9.6 20H10.4C14.9255 20 17.1882 20 18.5941 18.5941C20 17.1882 20 14.9255 20 10.4V9.6C20 5.0745 20 2.81177 18.5941 1.40589C17.1882 0 14.9255 0 10.4 0H9.6C5.0745 0 2.81177 0 1.40589 1.40589ZM3.37505 6.08337C3.48338 11.2834 6.08337 14.4084 10.6417 14.4084H10.9001V11.4334C12.5751 11.6 13.8417 12.825 14.35 14.4084H16.7167C16.0667 12.0417 14.3583 10.7334 13.2916 10.2334C14.3583 9.61671 15.8583 8.11671 16.2166 6.08337H14.0666C13.5999 7.73337 12.2168 9.23337 10.9001 9.37504V6.08337H8.75V11.85C7.41667 11.5167 5.73338 9.90004 5.65837 6.08337H3.37505Z" fill="#BDBDBD"></path></svg></svg>